<svg width="512" height="512" viewBox="0 0 512 512" xmlns="http://www.w3.org/2000/svg">
  <rect width="512" height="512" rx="112" fill="#110F0D"/>
  <g transform="translate(68.66,155.5) scale(0.78)">
    <g transform="translate(-24.964599,-47.090058)">
      <g transform="translate(-19.21714)">
        <path d="m 0,0 -3.2,-3.207 c -8.66,-8.229 -17.24,-7.934 -25.812,0.443 -7.945,7.763 -15.831,15.585 -23.836,23.285 -8.911,8.571 -17.95,8.484 -26.695,-0.18 -7.724,-7.653 -15.332,-15.424 -23.097,-23.036 l -8.464,-8.506 1.214,-1.497 c 8.257,8.206 17.49,8.168 25.809,-0.104 7.459,-7.417 14.859,-14.894 22.358,-22.27 1.843,-1.812 3.804,-3.606 5.996,-4.94 6.805,-4.142 14.652,-2.595 21.469,4.17 11.729,11.637 23.432,23.301 35.141,34.959 z" transform="matrix(1.3333333,0,0,-1.3333333,522.2096,85.5892)" fill="rgb(166, 130, 30)"/>
        <path d="m 0,0 -0.695,0.696 c -6.018,-5.983 -12.039,-11.963 -18.189,-17.807 -8.66,-8.229 -17.239,-7.934 -25.812,0.443 -7.945,7.763 -15.831,15.585 -23.836,23.284 -8.911,8.572 -17.95,8.485 -26.695,-0.179 -7.724,-7.653 -15.332,-15.424 -23.097,-23.036 -8.47,-8.303 -17.44,-8.23 -25.847,0.054 -2.273,2.239 -4.506,4.521 -6.765,6.776 -5.603,5.595 -11.146,11.254 -16.835,16.761 -7.533,7.293 -16.779,8.238 -23.79,1.692 -11.3,-10.554 -22.126,-21.615 -33.153,-32.461 0.234,-0.278 0.468,-0.555 0.702,-0.832 9.019,6.563 16.162,6.309 24.337,-1.397 8.167,-7.697 16.028,-15.718 24.047,-23.573 9.115,-8.93 18.11,-8.862 27.21,0.19 7.624,7.586 15.215,15.205 22.844,22.786 8.258,8.206 17.49,8.168 25.809,-0.103 7.459,-7.418 14.859,-14.894 22.359,-22.27 1.842,-1.812 3.803,-3.607 5.995,-4.941 6.805,-4.141 14.653,-2.594 21.469,4.17 16.684,16.554 33.307,33.169 49.986,49.728 z" transform="matrix(1.3333333,0,0,-1.3333333,475.1984,134.64373)" fill="rgb(166, 130, 30)"/>
        <path d="m 0,0 -0.695,0.696 c -6.018,-5.983 -12.039,-11.963 -18.189,-17.807 -8.66,-8.229 -17.239,-7.934 -25.812,0.443 -7.945,7.763 -15.831,15.585 -23.836,23.284 -8.911,8.572 -17.95,8.485 -26.695,-0.179 -7.724,-7.653 -15.332,-15.424 -23.097,-23.036 -1.733,-1.699 -3.487,-3.041 -5.253,-4.04 0.729,-0.852 1.446,-1.715 2.146,-2.59 7.126,4.593 14.715,3.435 21.666,-3.477 7.459,-7.418 14.86,-14.894 22.359,-22.27 1.842,-1.812 3.804,-3.607 5.995,-4.941 6.805,-4.141 14.653,-2.594 21.47,4.17 16.683,16.554 33.306,33.169 49.986,49.728 z" transform="matrix(1.3333333,0,0,-1.3333333,209.74587,134.64373)" fill="rgb(166, 130, 30)"/>
        <path d="m 0,0 -22.156,-22.155 c -0.281,-0.281 -0.738,-0.281 -1.02,0 L -45.33,0 c -0.282,0.282 -0.282,0.738 0,1.02 l 22.154,22.156 c 0.282,0.281 0.739,0.281 1.02,0 L 0,1.02 C 0.282,0.738 0.282,0.282 0,0" transform="matrix(1.3333333,0,0,-1.3333333,355.63893,210.29467)" fill="rgb(166, 130, 30)"/>
        <path d="m 0,0 -22.156,-22.155 c -0.281,-0.281 -0.738,-0.281 -1.02,0 L -45.33,0 c -0.282,0.282 -0.282,0.738 -0.001,1.02 l 22.155,22.156 c 0.282,0.281 0.739,0.281 1.02,0 L 0,1.02 C 0.282,0.738 0.282,0.282 0,0" transform="matrix(1.3333333,0,0,-1.3333333,490.4028,210.29467)" fill="rgb(166, 130, 30)"/>
        <path d="m 0,0 -22.155,-22.155 c -0.282,-0.282 -0.738,-0.282 -1.02,0 L -45.33,0 c -0.281,0.282 -0.281,0.738 0,1.02 l 22.155,22.156 c 0.282,0.281 0.738,0.281 1.02,0 L 0,1.02 C 0.282,0.738 0.282,0.282 0,0" transform="matrix(1.3333333,0,0,-1.3333333,221.26107,210.29467)" fill="rgb(166, 130, 30)"/>
        <path d="m 0,0 -22.155,-22.155 c -0.282,-0.282 -0.738,-0.282 -1.02,0 L -45.33,0 c -0.281,0.282 -0.281,0.738 0,1.02 l 22.155,22.156 c 0.282,0.281 0.738,0.281 1.02,0 L 0,1.02 C 0.282,0.738 0.282,0.282 0,0" transform="matrix(1.3333333,0,0,-1.3333333,221.26107,261.43147)" fill="rgb(166, 130, 30)"/>
        <path d="m 0,0 -22.155,-22.156 c -0.281,-0.281 -0.738,-0.281 -1.02,0 L -45.331,0 c -0.281,0.282 -0.281,0.738 0.001,1.02 l 22.155,22.155 c 0.282,0.282 0.739,0.281 1.02,0 L 0,1.02 C 0.282,0.738 0.282,0.282 0,0" transform="matrix(1.3333333,0,0,-1.3333333,197.03853,117.8904)" fill="rgb(166, 130, 30)"/>
      </g>
    </g>
  </g>
</svg>
