<svg xmlns="http://www.w3.org/2000/svg" id="svg1" width="480" height="340" viewBox="0 0 479.99982 340">
  <defs id="defs1"/>
  
    
  
  <g id="layer-MC0" transform="translate(-24.964599,-47.090058)">
    <g id="g15" transform="translate(-19.21714)">
      <path id="path1" d="m 0,0 -3.2,-3.207 c -8.66,-8.229 -17.24,-7.934 -25.812,0.443 -7.945,7.763 -15.831,15.585 -23.836,23.285 -8.911,8.571 -17.95,8.484 -26.695,-0.18 -7.724,-7.653 -15.332,-15.424 -23.097,-23.036 l -8.464,-8.506 1.214,-1.497 c 8.257,8.206 17.49,8.168 25.809,-0.104 7.459,-7.417 14.859,-14.894 22.358,-22.27 1.843,-1.812 3.804,-3.606 5.996,-4.94 6.805,-4.142 14.652,-2.595 21.469,4.17 11.729,11.637 23.432,23.301 35.141,34.959 z" transform="matrix(1.3333333,0,0,-1.3333333,522.2096,85.5892)" fill="rgb(166, 130, 30)" fill-opacity="1" fill-rule="nonzero" stroke="none"/>
      <path id="path2" d="m 0,0 -0.695,0.696 c -6.018,-5.983 -12.039,-11.963 -18.189,-17.807 -8.66,-8.229 -17.239,-7.934 -25.812,0.443 -7.945,7.763 -15.831,15.585 -23.836,23.284 -8.911,8.572 -17.95,8.485 -26.695,-0.179 -7.724,-7.653 -15.332,-15.424 -23.097,-23.036 -8.47,-8.303 -17.44,-8.23 -25.847,0.054 -2.273,2.239 -4.506,4.521 -6.765,6.776 -5.603,5.595 -11.146,11.254 -16.835,16.761 -7.533,7.293 -16.779,8.238 -23.79,1.692 -11.3,-10.554 -22.126,-21.615 -33.153,-32.461 0.234,-0.278 0.468,-0.555 0.702,-0.832 9.019,6.563 16.162,6.309 24.337,-1.397 8.167,-7.697 16.028,-15.718 24.047,-23.573 9.115,-8.93 18.11,-8.862 27.21,0.19 7.624,7.586 15.215,15.205 22.844,22.786 8.258,8.206 17.49,8.168 25.809,-0.103 7.459,-7.418 14.859,-14.894 22.359,-22.27 1.842,-1.812 3.803,-3.607 5.995,-4.941 6.805,-4.141 14.653,-2.594 21.469,4.17 16.684,16.554 33.307,33.169 49.986,49.728 z" transform="matrix(1.3333333,0,0,-1.3333333,475.1984,134.64373)" fill="rgb(166, 130, 30)" fill-opacity="1" fill-rule="nonzero" stroke="none"/>
      <path id="path3" d="m 0,0 -0.695,0.696 c -6.018,-5.983 -12.039,-11.963 -18.189,-17.807 -8.66,-8.229 -17.239,-7.934 -25.812,0.443 -7.945,7.763 -15.831,15.585 -23.836,23.284 -8.911,8.572 -17.95,8.485 -26.695,-0.179 -7.724,-7.653 -15.332,-15.424 -23.097,-23.036 -1.733,-1.699 -3.487,-3.041 -5.253,-4.04 0.729,-0.852 1.446,-1.715 2.146,-2.59 7.126,4.593 14.715,3.435 21.666,-3.477 7.459,-7.418 14.86,-14.894 22.359,-22.27 1.842,-1.812 3.804,-3.607 5.995,-4.941 6.805,-4.141 14.653,-2.594 21.47,4.17 16.683,16.554 33.306,33.169 49.986,49.728 z" transform="matrix(1.3333333,0,0,-1.3333333,209.74587,134.64373)" fill="rgb(166, 130, 30)" fill-opacity="1" fill-rule="nonzero" stroke="none"/>
      <path id="path4" d="m 0,0 -22.156,-22.155 c -0.281,-0.281 -0.738,-0.281 -1.02,0 L -45.33,0 c -0.282,0.282 -0.282,0.738 0,1.02 l 22.154,22.156 c 0.282,0.281 0.739,0.281 1.02,0 L 0,1.02 C 0.282,0.738 0.282,0.282 0,0" transform="matrix(1.3333333,0,0,-1.3333333,355.63893,210.29467)" fill="rgb(166, 130, 30)" fill-opacity="1" fill-rule="nonzero" stroke="none"/>
      <path id="path5" d="m 0,0 -22.156,-22.155 c -0.281,-0.281 -0.738,-0.281 -1.02,0 L -45.33,0 c -0.282,0.282 -0.282,0.738 -0.001,1.02 l 22.155,22.156 c 0.282,0.281 0.739,0.281 1.02,0 L 0,1.02 C 0.282,0.738 0.282,0.282 0,0" transform="matrix(1.3333333,0,0,-1.3333333,490.4028,210.29467)" fill="rgb(166, 130, 30)" fill-opacity="1" fill-rule="nonzero" stroke="none"/>
      <path id="path6" d="m 0,0 -22.155,-22.155 c -0.282,-0.282 -0.738,-0.282 -1.02,0 L -45.33,0 c -0.281,0.282 -0.281,0.738 0,1.02 l 22.155,22.156 c 0.282,0.281 0.738,0.281 1.02,0 L 0,1.02 C 0.282,0.738 0.282,0.282 0,0" transform="matrix(1.3333333,0,0,-1.3333333,221.26107,210.29467)" fill="rgb(166, 130, 30)" fill-opacity="1" fill-rule="nonzero" stroke="none"/>
      <path id="path7" d="m 0,0 -22.155,-22.155 c -0.282,-0.282 -0.738,-0.282 -1.02,0 L -45.33,0 c -0.281,0.282 -0.281,0.738 0,1.02 l 22.155,22.156 c 0.282,0.281 0.738,0.281 1.02,0 L 0,1.02 C 0.282,0.738 0.282,0.282 0,0" transform="matrix(1.3333333,0,0,-1.3333333,221.26107,261.43147)" fill="rgb(166, 130, 30)" fill-opacity="1" fill-rule="nonzero" stroke="none"/>
      <path id="path8" d="m 0,0 -22.155,-22.156 c -0.281,-0.281 -0.738,-0.281 -1.02,0 L -45.331,0 c -0.281,0.282 -0.281,0.738 0.001,1.02 l 22.155,22.155 c 0.282,0.282 0.739,0.281 1.02,0 L 0,1.02 C 0.282,0.738 0.282,0.282 0,0" transform="matrix(1.3333333,0,0,-1.3333333,197.03853,117.8904)" fill="rgb(166, 130, 30)" fill-opacity="1" fill-rule="nonzero" stroke="none"/>
    </g>
    <g id="g14" transform="translate(-18.914404,-20)">
      <path id="path9" d="m 0,0 h 5.466 v -28.013 c 0,-11.118 -5.466,-14.535 -12.671,-14.535 -2.05,0 -4.41,0.435 -5.777,0.932 l 0.808,4.472 c 1.118,-0.497 2.67,-0.807 4.534,-0.807 4.845,0 7.64,2.237 7.64,10.435 z" transform="matrix(1.3333333,0,0,-1.3333333,61.680133,347.7196)" fill="rgb(17, 15, 13)" fill-opacity="1" fill-rule="nonzero" stroke="none"/>
      <path id="path10" d="m 0,0 -4.099,12.05 c -0.933,2.733 -1.553,5.217 -2.174,7.64 H -6.46 C -7.019,17.205 -7.702,14.658 -8.51,12.112 L -12.609,0 Z m -13.727,-4.224 -4.286,-13.167 h -5.652 L -9.379,24.473 H -2.92 L 11.367,-17.391 H 5.59 L 1.118,-4.224 Z" transform="matrix(1.3333333,0,0,-1.3333333,153.02733,380.34973)" fill="rgb(17, 15, 13)" fill-opacity="1" fill-rule="nonzero" stroke="none"/>
      <path id="path11" d="m 0,0 c 1.118,-0.186 2.546,-0.249 4.534,-0.249 5.59,0 10.808,2.05 10.808,8.075 0,5.776 -4.969,8.137 -10.87,8.137 H 0 Z m 0,20 h 4.907 c 5.652,0 9.068,3.043 9.068,7.08 0,4.908 -3.727,6.834 -9.192,6.834 C 2.298,33.914 0.87,33.727 0,33.541 Z m -5.466,17.205 c 2.422,0.497 6.211,0.87 9.938,0.87 5.404,0 8.882,-0.932 11.429,-3.044 2.235,-1.614 3.54,-4.099 3.54,-7.391 0,-4.038 -2.733,-7.64 -7.08,-9.193 v -0.124 c 3.975,-0.994 8.633,-4.224 8.633,-10.559 0,-3.541 -1.367,-6.274 -3.602,-8.323 -2.858,-2.671 -7.578,-3.913 -14.411,-3.913 -3.789,0 -6.583,0.248 -8.447,0.496 z" transform="matrix(1.3333333,0,0,-1.3333333,228.3088,398.072)" fill="rgb(17, 15, 13)" fill-opacity="1" fill-rule="nonzero" stroke="none"/>
      <path id="path12" d="M 0,0 H -16.211 V -15.155 H 1.926 v -4.472 H -21.677 V 22.236 H 0.994 V 17.764 H -16.211 V 4.472 H 0 Z" transform="matrix(1.3333333,0,0,-1.3333333,339.53173,377.368)" fill="rgb(17, 15, 13)" fill-opacity="1" fill-rule="nonzero" stroke="none"/>
      <path id="path13" d="M 0,0 H -16.211 V -15.155 H 1.926 v -4.472 H -21.677 V 22.236 H 0.994 V 17.764 H -16.211 V 4.472 H 0 Z" transform="matrix(1.3333333,0,0,-1.3333333,424.91627,377.368)" fill="rgb(17, 15, 13)" fill-opacity="1" fill-rule="nonzero" stroke="none"/>
      <path id="path14" d="M 0,0 V 41.864 H 6.025 L 19.379,20.745 c 3.044,-4.969 5.528,-9.379 7.516,-13.665 l 0.124,0.063 c -0.496,5.59 -0.621,10.683 -0.621,17.143 v 17.578 h 5.094 L 31.492,0 H 26.026 L 12.733,21.242 C 9.814,25.9 7.019,30.683 4.907,35.217 L 4.72,35.155 C 5.032,29.876 5.155,24.845 5.155,17.888 V 0 Z" transform="matrix(1.3333333,0,0,-1.3333333,481.39787,403.53773)" fill="rgb(17, 15, 13)" fill-opacity="1" fill-rule="nonzero" stroke="none"/>
    </g>
  </g>
</svg>